<?xml version="1.0" standalone="no"?>
<!DOCTYPE svg PUBLIC "-//W3C//DTD SVG 20010904//EN"
 "http://www.w3.org/TR/2001/REC-SVG-20010904/DTD/svg10.dtd">
<svg version="1.0" xmlns="http://www.w3.org/2000/svg"
 width="512.000000pt" height="512.000000pt" viewBox="0 0 512.000000 512.000000"
 preserveAspectRatio="xMidYMid meet">

<g transform="translate(0.000000,512.000000) scale(0.100000,-0.100000)"
fill="#1e293b" stroke="none">
<path d="M2295 5098 c-266 -26 -587 -119 -840 -242 -272 -132 -477 -278 -695
-496 -218 -218 -363 -421 -496 -693 -164 -340 -241 -655 -251 -1042 -19 -712
240 -1359 747 -1865 218 -218 423 -365 695 -496 701 -340 1523 -338 2220 5
278 137 468 273 685 491 291 290 484 598 614 978 99 290 131 490 131 822 0
333 -31 529 -132 825 -122 361 -331 694 -613 975 -218 218 -408 354 -685 491
-267 131 -578 220 -869 248 -128 13 -382 12 -511 -1z m500 -862 c258 -88 443
-282 516 -542 32 -112 32 -286 0 -398 -73 -260 -256 -452 -516 -543 -74 -25
-91 -27 -235 -27 -144 0 -161 2 -235 27 -260 91 -443 283 -517 543 -31 111
-32 286 0 397 68 240 230 425 456 520 109 46 176 57 321 53 109 -3 143 -7 210
-30z m610 -1878 c273 -93 470 -319 521 -598 16 -88 19 -525 5 -563 -26 -68
-104 -89 -158 -43 l-28 24 -6 274 c-7 297 -11 323 -72 443 -36 73 -150 189
-224 228 -28 15 -86 36 -129 47 -73 19 -112 20 -754 20 -642 0 -681 -1 -754
-20 -43 -11 -101 -32 -129 -47 -74 -39 -188 -155 -224 -228 -61 -120 -65 -146
-70 -439 l-5 -270 -28 -28 c-31 -31 -91 -38 -120 -15 -48 38 -50 48 -50 302 1
157 5 266 14 315 47 260 225 479 467 577 129 52 129 52 924 50 l740 -2 80 -27z"/>
<path d="M2410 4049 c-98 -26 -193 -83 -268 -164 -106 -113 -154 -234 -154
-390 0 -167 51 -287 171 -405 42 -42 99 -88 128 -103 70 -37 192 -67 273 -67
81 0 203 30 273 67 72 38 195 164 235 239 87 166 87 372 0 538 -40 75 -163
201 -235 239 -121 64 -285 82 -423 46z"/>
</g>
</svg>
